<?xml version="1.0" encoding="utf-8"?>
<svg id="master-artboard" viewBox="0 0 1400 980" xmlns="http://www.w3.org/2000/svg" width="1400px" height="980px" version="1.1" style="shape-rendering:geometricPrecision; text-rendering:geometricPrecision; image-rendering:optimizeQuality; fill-rule:evenodd; clip-rule:evenodd"><rect id="ee-background" x="0" y="0" width="1400" height="980" style="fill: white; fill-opacity: 0; pointer-events: none;"/><path d="M12 2C6.48 2 2 6.48 2 12s4.48 10 10 10 10-4.48 10-10S17.52 2 12 2zm0 3c1.66 0 3 1.34 3 3s-1.34 3-3 3-3-1.34-3-3 1.34-3 3-3zm0 14.2c-2.5 0-4.71-1.28-6-3.22.03-1.99 4-3.08 6-3.08 1.99 0 5.97 1.09 6 3.08-1.29 1.94-3.5 3.22-6 3.22z" style="fill-opacity: 1; fill: rgb(255, 255, 255);" transform="matrix(-40.83333206176758, 0, 0, 40.83333206176758, 1189.9999999999998, 1.1368683772161603e-13)"/><path d="M0 0h24v24H0z" fill="none" style="fill-opacity: 1;" transform="matrix(-40.83333206176758, 0, 0, 40.83333206176758, 1189.9999999999998, 1.1368683772161603e-13)"/></svg>